{"title":"The.7th.Dwarf.2014.WEBRip.XviD.AC3-RARBG","uid":11766049,"size":1301450102,"categoryP":"video","categoryS":"movies","magnet":"?xt=urn:btih:2510ea637513dbb2c07716586169036474ce62c7&amp;dn=The.7th.Dwarf.2014.WEBRip.XviD.AC3-RARBG&amp;tr=udp%3A%2F%2Ftracker.openbittorrent.com%3A80&amp;tr=udp%3A%2F%2Fopen.demonii.com%3A1337&amp;tr=udp%3A%2F%2Ftracker.coppersurfer.tk%3A6969&amp;tr=udp%3A%2F%2Fexodus.desync.com%3A6969","seeders":0,"leechers":1,"uploader":"vickey1992","files":4,"time":1426858168,"description":"\n\nMediaInfo\n\n\nFormat : AVI\nFormat/Info : Audio Video Interleave\nFile size : 1.21 GiB\nDuration : 1h 27mn\nOverall bit rate : 1 992 Kbps\nMovie name : RARBG.COM - The.7th.Dwarf.2014.WEBRip.XviD.AC3-RARBG\nWriting library : VirtualDub build 35491/release\nComment : RARBG.COM - The.7th.Dwarf.2014.WEBRip.XviD.AC3-RARBG\n\nVideo\nID : 0\nFormat : MPEG-4 Visual\nFormat profile : Simple@L5\nFormat settings, BVOP : No\nFormat settings, QPel : No\nFormat settings, GMC : No warppoints\nFormat settings, Matrix : Default (H.263)\nCodec ID : XVID\nCodec ID/Hint : XviD\nDuration : 1h 27mn\nBit rate : 1 599 Kbps\nWidth : 720 pixels\nHeight : 384 pixels\nDisplay aspect ratio : 1.85:1\nFrame rate : 24.000 fps\nColor space : YUV\nChroma subsampling : 4:2:0\nBit depth : 8 bits\nScan type : Progressive\nCompression mode : Lossy\nBits/(Pixel*Frame) : 0.241\nStream size : 995 MiB (80%)\nWriting library : Lavc56.20.100\n\nAudio\nID : 1\nFormat : AC-3\nFormat/Info : Audio Coding 3\nMode extension : CM (complete main)\nFormat settings, Endianness : Big\nCodec ID : 2000\nDuration : 1h 27mn\nBit rate mode : Constant\nBit rate : 384 Kbps\nChannel(s) : 6 channels\nChannel positions : Front: L C R, Side: L R, LFE\nSampling rate : 48.0 KHz\nBit depth : 16 bits\nCompression mode : Lossy\nStream size : 239 MiB (19%)\nAlignment : Aligned on interleaves\nInterleave, duration : 42 ms (1.00 video frame)\nInterleave, preload duration : 512 ms","torrent":{"xt":"urn:btih:2510ea637513dbb2c07716586169036474ce62c7","amp;dn":"The.7th.Dwarf.2014.WEBRip.XviD.AC3-RARBG","amp;tr":["udp%3A%2F%2Ftracker.openbittorrent.com%3A80","udp%3A%2F%2Fopen.demonii.com%3A1337","udp%3A%2F%2Ftracker.coppersurfer.tk%3A6969","udp%3A%2F%2Fexodus.desync.com%3A6969"],"infoHash":"2510ea637513dbb2c07716586169036474ce62c7","infoHashBuffer":{"type":"Buffer","data":[37,16,234,99,117,19,219,178,192,119,22,88,97,105,3,100,116,206,98,199]},"announce":[],"urlList":[]}}